<svg width="26" height="26" viewBox="0 0 26 26" fill="none" xmlns="http://www.w3.org/2000/svg">
<g clip-path="url(#clip0_33447_2498)">
<path fill-rule="evenodd" clip-rule="evenodd" d="M13.0938 0.829102C6.30638 0.829102 0.805176 6.27557 0.805176 12.9932C0.805176 19.7108 6.30638 25.1573 13.0938 25.1573C19.8802 25.1573 25.3824 19.7108 25.3824 12.9932C25.3824 6.27557 19.8802 0.829102 13.0938 0.829102ZM13.2372 20.1072C9.27613 20.1072 6.0688 16.9242 6.0688 12.9932C6.0688 9.06216 9.27613 5.87923 13.2372 5.87923C15.1726 5.87923 16.7906 6.58576 18.0318 7.73324L16.0103 9.73828V9.73423C15.2576 9.02263 14.3032 8.65771 13.2372 8.65771C10.8716 8.65771 8.94945 10.6405 8.94945 12.9891C8.94945 15.3358 10.8716 17.3246 13.2372 17.3246C15.3836 17.3246 16.8439 16.1062 17.1449 14.4336H13.2372V11.6592H19.9805C20.0706 12.1356 20.1188 12.6323 20.1188 13.1534C20.1188 17.2182 17.3774 20.1072 13.2372 20.1072Z" fill="#E86A5D"/>
</g>
<defs>
<clipPath id="clip0_33447_2498">
<rect width="24.5772" height="24.3282" fill="white" transform="translate(0.804199 0.829102)"/>
</clipPath>
</defs>
</svg>
