<svg width="21" height="20" viewBox="0 0 21 20" fill="none" xmlns="http://www.w3.org/2000/svg">
<path fill-rule="evenodd" clip-rule="evenodd" d="M3.24341 9.30509C3.24341 7.22827 4.97934 5.54468 7.12072 5.54468H13.6509C15.7923 5.54468 17.5283 7.22827 17.5283 9.30509V14.0551C17.5283 16.1319 15.7923 17.8155 13.6509 17.8155H7.12072C4.97934 17.8155 3.24341 16.1319 3.24341 14.0551V9.30509ZM7.12072 6.73218C5.65557 6.73218 4.46782 7.88411 4.46782 9.30509V14.0551C4.46782 15.4761 5.65557 16.628 7.12072 16.628H13.6509C15.1161 16.628 16.3038 15.4761 16.3038 14.0551V9.30509C16.3038 7.88411 15.1161 6.73218 13.6509 6.73218H7.12072Z" fill="#109BFF"/>
<path fill-rule="evenodd" clip-rule="evenodd" d="M10.3854 10.6907C9.82186 10.6907 9.36504 11.1337 9.36504 11.6803C9.36504 12.2268 9.82186 12.6698 10.3854 12.6698C10.9489 12.6698 11.4057 12.2268 11.4057 11.6803C11.4057 11.1337 10.9489 10.6907 10.3854 10.6907ZM8.14062 11.6803C8.14062 10.4779 9.14564 9.50317 10.3854 9.50317C11.6251 9.50317 12.6301 10.4779 12.6301 11.6803C12.6301 12.8826 11.6251 13.8573 10.3854 13.8573C9.14564 13.8573 8.14062 12.8826 8.14062 11.6803Z" fill="#109BFF"/>
<path fill-rule="evenodd" clip-rule="evenodd" d="M10.3861 3.56567C8.92095 3.56567 7.7332 4.71761 7.7332 6.13859H6.50879C6.50879 4.06177 8.24472 2.37817 10.3861 2.37817C12.5275 2.37817 14.2634 4.06177 14.2634 6.13859H13.039C13.039 4.71761 11.8513 3.56567 10.3861 3.56567Z" fill="#109BFF"/>
</svg>
