<svg width="21" height="20" viewBox="0 0 21 20" fill="none" xmlns="http://www.w3.org/2000/svg">
<path fill-rule="evenodd" clip-rule="evenodd" d="M1.6106 8.51367C1.6106 5.5624 4.07745 3.16992 7.12046 3.16992H13.6507C16.6937 3.16992 19.1605 5.5624 19.1605 8.51367V11.6803C19.1605 14.6316 16.6937 17.0241 13.6507 17.0241H7.12046C4.07745 17.0241 1.6106 14.6316 1.6106 11.6803V8.51367ZM7.12046 4.35742C4.75367 4.35742 2.83501 6.21824 2.83501 8.51367V11.6803C2.83501 13.9758 4.75367 15.8366 7.12046 15.8366H13.6507C16.0175 15.8366 17.9361 13.9758 17.9361 11.6803V8.51367C17.9361 6.21824 16.0175 4.35742 13.6507 4.35742H7.12046Z" fill="#CE35F0"/>
<path fill-rule="evenodd" clip-rule="evenodd" d="M5.82607 7.35103C6.03729 7.09497 6.42255 7.05346 6.68657 7.2583L8.72825 8.84241C9.69714 9.59415 11.0739 9.59415 12.0428 8.84241L14.0844 7.2583C14.3485 7.05346 14.7337 7.09497 14.9449 7.35103C15.1562 7.60709 15.1134 7.98074 14.8493 8.18559L12.8076 9.76969C11.3916 10.8684 9.37944 10.8684 7.96337 9.76969L5.92168 8.18559C5.65766 7.98074 5.61485 7.60709 5.82607 7.35103Z" fill="#CE35F0"/>
</svg>
