<svg width="21" height="20" viewBox="0 0 21 20" fill="none" xmlns="http://www.w3.org/2000/svg">
<path fill-rule="evenodd" clip-rule="evenodd" d="M10.3861 3.56567C8.92095 3.56567 7.7332 4.71761 7.7332 6.13859C7.7332 7.55957 8.92095 8.71151 10.3861 8.71151C11.8513 8.71151 13.039 7.55957 13.039 6.13859C13.039 4.71761 11.8513 3.56567 10.3861 3.56567ZM6.50879 6.13859C6.50879 4.06177 8.24472 2.37817 10.3861 2.37817C12.5275 2.37817 14.2634 4.06177 14.2634 6.13859C14.2634 8.21541 12.5275 9.89901 10.3861 9.89901C8.24472 9.89901 6.50879 8.21541 6.50879 6.13859Z" fill="#109BFF"/>
<path fill-rule="evenodd" clip-rule="evenodd" d="M6.71258 12.2739C5.47284 12.2739 4.46782 13.2486 4.46782 14.451C4.46782 15.6534 5.47284 16.6281 6.71258 16.6281H14.0591C15.2988 16.6281 16.3038 15.6534 16.3038 14.451C16.3038 13.2486 15.2988 12.2739 14.0591 12.2739H6.71258ZM3.24341 14.451C3.24341 12.5928 4.79661 11.0864 6.71258 11.0864H14.0591C15.975 11.0864 17.5283 12.5928 17.5283 14.451C17.5283 16.3092 15.975 17.8156 14.0591 17.8156H6.71258C4.79661 17.8156 3.24341 16.3092 3.24341 14.451Z" fill="#109BFF"/>
</svg>
